<?xml version="1.0" encoding="UTF-8"?>
<!-- Generator: visioncortex VTracer 0.6.12 -->
<svg version="1.1" xmlns="http://www.w3.org/2000/svg" width="1024" height="1024">
<path d="M0 0 C2.545 -0.003 5.089 -0.008 7.634 -0.014 C13.13 -0.024 18.625 -0.025 24.121 -0.017 C32.293 -0.006 40.466 -0.012 48.638 -0.021 C63.241 -0.036 77.843 -0.035 92.445 -0.026 C105.224 -0.019 118.003 -0.017 130.781 -0.02 C131.631 -0.021 132.481 -0.021 133.356 -0.021 C136.805 -0.022 140.255 -0.023 143.704 -0.024 C176.022 -0.033 208.34 -0.025 240.657 -0.009 C269.333 0.005 298.009 0.004 326.685 -0.01 C358.947 -0.026 391.209 -0.033 423.472 -0.023 C426.914 -0.022 430.357 -0.021 433.8 -0.02 C434.647 -0.02 435.495 -0.02 436.368 -0.02 C449.135 -0.016 461.903 -0.02 474.67 -0.028 C489.195 -0.037 503.719 -0.034 518.244 -0.018 C526.36 -0.009 534.477 -0.009 542.593 -0.02 C548.67 -0.028 554.747 -0.019 560.823 -0.005 C563.269 -0.002 565.715 -0.003 568.161 -0.011 C586.081 -0.06 603.584 1.025 620.911 5.943 C621.806 6.195 622.7 6.446 623.622 6.705 C658.264 16.841 688.219 34.909 714.755 59.135 C716.407 60.638 718.074 62.125 719.755 63.596 C725.717 68.832 731.081 74.34 736.223 80.381 C736.46 80.656 736.46 80.656 737.656 82.047 C751.621 98.376 763.385 116.289 773.223 135.381 C773.384 135.691 773.384 135.691 774.194 137.259 C783.198 154.96 789.397 173.923 793.223 193.381 C793.397 194.196 793.571 195.011 793.75 195.851 C795.918 207.525 795.504 219.322 795.484 231.151 C795.487 233.684 795.491 236.217 795.496 238.75 C795.504 244.244 795.506 249.739 795.502 255.234 C795.497 263.405 795.503 271.577 795.511 279.748 C795.527 295.195 795.528 310.642 795.526 326.089 C795.524 338.022 795.526 349.955 795.53 361.889 C795.531 363.605 795.531 365.321 795.532 367.037 C795.533 369.623 795.534 372.21 795.535 374.796 C795.543 398.837 795.547 422.878 795.543 446.919 C795.543 447.825 795.543 448.73 795.543 449.664 C795.542 454.255 795.541 458.846 795.54 463.437 C795.54 464.348 795.54 465.26 795.54 466.2 C795.539 468.043 795.539 469.887 795.539 471.731 C795.533 500.405 795.541 529.08 795.56 557.754 C795.58 589.996 795.591 622.237 795.587 654.479 C795.587 657.92 795.586 661.361 795.586 664.803 C795.586 665.226 795.586 665.226 795.586 667.37 C795.585 680.134 795.591 692.898 795.602 705.662 C795.614 720.19 795.615 734.718 795.603 749.246 C795.596 757.364 795.598 765.482 795.612 773.601 C795.621 779.681 795.614 785.761 795.602 791.842 C795.599 794.288 795.601 796.734 795.61 799.18 C795.668 818.207 794.075 836.498 789.473 855.006 C789.215 856.055 788.956 857.103 788.689 858.184 C780.362 890.853 764.21 920.926 742.223 946.381 C741.444 947.291 740.664 948.201 739.86 949.139 C737.694 951.602 735.48 954.001 733.223 956.381 C732.755 956.877 732.287 957.372 731.804 957.883 C723.862 966.228 715.462 973.513 706.223 980.381 C705.666 980.805 705.108 981.229 704.534 981.665 C694.974 988.923 684.87 994.858 674.223 1000.381 C673.849 1000.576 673.849 1000.576 671.954 1001.565 C638.865 1018.614 603.906 1024.704 567.048 1024.642 C564.508 1024.645 561.967 1024.649 559.427 1024.653 C553.925 1024.661 548.424 1024.663 542.922 1024.66 C534.74 1024.654 526.559 1024.661 518.377 1024.669 C502.911 1024.684 487.445 1024.686 471.979 1024.683 C460.033 1024.681 448.087 1024.683 436.14 1024.688 C434.421 1024.688 432.702 1024.689 430.984 1024.689 C428.393 1024.69 425.803 1024.691 423.212 1024.692 C399.14 1024.7 375.068 1024.705 350.996 1024.701 C350.543 1024.701 350.543 1024.701 348.249 1024.7 C343.654 1024.699 339.059 1024.699 334.464 1024.698 C333.551 1024.697 332.639 1024.697 331.699 1024.697 C329.853 1024.697 328.008 1024.696 326.163 1024.696 C297.454 1024.691 268.746 1024.699 240.037 1024.717 C207.751 1024.738 175.465 1024.749 143.179 1024.745 C139.733 1024.744 136.288 1024.744 132.842 1024.743 C131.994 1024.743 131.145 1024.743 130.271 1024.743 C117.491 1024.742 104.71 1024.749 91.93 1024.759 C77.387 1024.771 62.844 1024.773 48.301 1024.76 C40.173 1024.754 32.046 1024.755 23.918 1024.769 C17.833 1024.778 11.748 1024.772 5.663 1024.759 C3.213 1024.757 0.764 1024.759 -1.686 1024.767 C-19.755 1024.822 -37.319 1023.694 -54.777 1018.693 C-55.68 1018.44 -56.583 1018.187 -57.513 1017.925 C-72.968 1013.436 -87.602 1006.948 -101.777 999.381 C-102.921 998.779 -104.066 998.177 -105.245 997.557 C-120.752 989.074 -134.667 978.175 -147.777 966.381 C-148.353 965.866 -148.93 965.351 -149.524 964.821 C-155.38 959.576 -161.141 954.322 -166.191 948.275 C-167.887 946.249 -169.672 944.323 -171.464 942.381 C-195.835 914.864 -214.084 880.942 -223.652 845.506 C-223.831 844.843 -224.01 844.18 -224.194 843.497 C-224.785 841.136 -225.282 838.765 -225.777 836.381 C-226.023 835.213 -226.27 834.044 -226.524 832.84 C-229.128 819.562 -229.198 806.501 -229.157 793.01 C-229.161 790.473 -229.166 787.935 -229.172 785.398 C-229.182 779.909 -229.182 774.421 -229.174 768.932 C-229.163 760.77 -229.169 752.607 -229.178 744.445 C-229.194 729.861 -229.193 715.277 -229.184 700.693 C-229.176 687.929 -229.174 675.164 -229.178 662.399 C-229.178 661.551 -229.178 660.702 -229.179 659.828 C-229.18 656.384 -229.181 652.94 -229.182 649.496 C-229.191 617.217 -229.182 584.937 -229.166 552.658 C-229.152 524.016 -229.153 495.375 -229.168 466.733 C-229.184 434.515 -229.19 402.298 -229.181 370.08 C-229.18 366.641 -229.179 363.203 -229.178 359.764 C-229.178 358.918 -229.177 358.071 -229.177 357.199 C-229.174 344.448 -229.178 331.697 -229.185 318.947 C-229.194 304.437 -229.192 289.928 -229.176 275.419 C-229.167 267.311 -229.166 259.204 -229.177 251.097 C-229.185 245.025 -229.177 238.953 -229.163 232.881 C-229.159 230.439 -229.161 227.996 -229.168 225.553 C-229.221 206.537 -227.625 188.253 -223.027 169.756 C-222.768 168.707 -222.509 167.659 -222.242 166.578 C-213.915 133.909 -197.763 103.836 -175.777 78.381 C-174.997 77.471 -174.217 76.561 -173.413 75.623 C-171.247 73.16 -169.033 70.761 -166.777 68.381 C-166.308 67.885 -165.84 67.39 -165.357 66.879 C-157.415 58.534 -149.015 51.249 -139.777 44.381 C-139.219 43.957 -138.661 43.533 -138.087 43.097 C-114.964 25.541 -87.535 13.038 -59.402 6.131 C-58.459 5.897 -57.517 5.663 -56.546 5.421 C-37.735 1.03 -19.257 -0.058 0 0 Z " fill="#0A0F1E" transform="translate(228.77650451660156,-0.380950927734375)"/>
<path d="M0 0 C44.88 0 89.76 0 136 0 C136 194.37 136 388.74 136 589 C91.12 589 46.24 589 0 589 C0 573.82 0 558.64 0 543 C25.41 543 50.82 543 77 543 C77 378.99 77 214.98 77 46 C51.59 46 26.18 46 0 46 C0 30.82 0 15.64 0 0 Z " fill="#5AA2FE" transform="translate(741,193)"/>
<path d="M0 0 C44.88 0 89.76 0 136 0 C136 15.18 136 30.36 136 46 C110.59 46 85.18 46 59 46 C59 210.01 59 374.02 59 543 C84.41 543 109.82 543 136 543 C136 558.18 136 573.36 136 589 C91.12 589 46.24 589 0 589 C0 394.63 0 200.26 0 0 Z " fill="#5AA2FE" transform="translate(147,193)"/>
<path d="M0 0 C5.974 -0.07 11.946 -0.129 17.92 -0.165 C19.945 -0.18 21.969 -0.2 23.994 -0.226 C49.618 -0.55 73.108 3.019 92.461 21.309 C103.767 33.293 108.657 50.445 114.316 65.625 C114.901 67.186 115.486 68.747 116.071 70.307 C117.287 73.554 118.501 76.801 119.714 80.049 C121.252 84.171 122.795 88.292 124.339 92.413 C125.833 96.4 127.325 100.387 128.816 104.375 C128.955 104.744 128.955 104.744 129.654 106.614 C132.336 113.781 134.996 120.953 137.558 128.164 C140.037 135.143 142.637 142.074 145.262 149 C145.766 150.335 146.271 151.671 146.776 153.006 C147.851 155.853 148.927 158.7 150.004 161.547 C161.112 190.925 172.106 220.344 183.018 249.795 C184.03 252.526 185.042 255.257 186.055 257.988 C186.3 258.65 186.545 259.312 186.798 259.994 C192.027 274.102 197.309 288.189 202.6 302.273 C203.802 305.472 205.001 308.671 206.2 311.871 C208.769 318.726 211.346 325.577 213.93 332.426 C216.274 338.637 218.613 344.849 220.95 351.063 C222.512 355.214 224.076 359.364 225.643 363.514 C227.178 367.577 228.708 371.641 230.235 375.707 C230.812 377.242 231.391 378.776 231.972 380.309 C232.782 382.45 233.586 384.593 234.39 386.736 C234.847 387.949 235.304 389.162 235.775 390.412 C237.071 394.207 238.028 398.11 239 402 C222.5 402 206 402 189 402 C185.88 394.513 182.817 387.054 179.953 379.473 C179.585 378.503 179.217 377.533 178.837 376.534 C177.64 373.377 176.445 370.22 175.25 367.062 C174.402 364.825 173.554 362.588 172.705 360.352 C166.942 345.152 161.198 329.946 155.457 314.738 C139.746 273.118 123.881 231.556 108 190 C105.189 193.612 103.232 197.413 101.297 201.543 C100.943 202.29 100.588 203.038 100.223 203.808 C99.061 206.266 97.905 208.726 96.75 211.188 C95.935 212.916 95.12 214.644 94.304 216.372 C88.99 227.657 83.793 238.992 78.666 250.363 C72.597 263.816 66.272 277.141 59.92 290.461 C53.701 303.503 47.581 316.585 41.524 329.702 C38.877 335.43 36.22 341.152 33.562 346.875 C33.298 347.444 33.298 347.444 31.961 350.325 C29.063 356.567 26.159 362.807 23.246 369.043 C22.932 369.715 22.619 370.386 22.296 371.078 C20.783 374.316 19.27 377.554 17.756 380.791 C17.208 381.964 16.659 383.138 16.094 384.348 C15.616 385.369 15.139 386.39 14.646 387.442 C12.406 392.283 10.207 397.144 8 402 C-8.83 402 -25.66 402 -43 402 C-37.515 389.201 -32.011 376.499 -26.117 363.897 C-24.042 359.46 -21.979 355.019 -19.914 350.578 C-19.498 349.684 -19.082 348.789 -18.653 347.868 C-14.67 339.303 -10.733 330.718 -6.812 322.125 C-6.489 321.416 -6.165 320.706 -5.832 319.976 C-4.53 317.123 -3.228 314.27 -1.927 311.417 C0.386 306.344 2.703 301.273 5.023 296.203 C11.823 281.342 18.606 266.474 25.36 251.592 C30.732 239.761 36.151 227.951 41.583 216.147 C46.889 204.615 52.161 193.068 57.404 181.507 C61.13 173.292 64.874 165.085 68.645 156.891 C69.034 156.043 69.424 155.196 69.826 154.323 C71.73 150.186 73.635 146.051 75.543 141.916 C76.233 140.418 76.923 138.92 77.613 137.422 C77.927 136.743 78.241 136.065 78.564 135.365 C79.386 133.581 80.193 131.791 81 130 C81.42 129.146 81.841 128.291 82.274 127.411 C84.224 120.933 80.236 113.727 77.992 107.68 C77.588 106.585 77.185 105.49 76.769 104.361 C75.913 102.046 75.053 99.731 74.191 97.417 C72.889 93.913 71.604 90.402 70.32 86.891 C62.239 65.01 62.239 65.01 56 56 C55.6 55.403 55.199 54.805 54.787 54.189 C49.605 47.213 41.38 42.768 33 41 C27.312 40.508 21.647 40.399 15.938 40.312 C13.308 40.261 13.308 40.261 0 40 C0 26.8 0 13.6 0 0 Z " fill="#5AA2FD" transform="translate(414,276)"/>
</svg>
