<?xml version="1.0" encoding="UTF-8" standalone="no"?>
<!-- Generator: Adobe Illustrator 27.8.1, SVG Export Plug-In . SVG Version: 6.00 Build 0)  -->

<svg
   version="1.1"
   id="Layer_1"
   x="0px"
   y="0px"
   viewBox="0 0 1200 500"
   style="enable-background:new 0 0 1200 500;"
   xml:space="preserve"
   sodipodi:docname="LaTeX_logo_white_test.svg"
   inkscape:version="1.2.2 (b0a8486, 2022-12-01)"
   xmlns:inkscape="http://www.inkscape.org/namespaces/inkscape"
   xmlns:sodipodi="http://sodipodi.sourceforge.net/DTD/sodipodi-0.dtd"
   xmlns="http://www.w3.org/2000/svg"
   xmlns:svg="http://www.w3.org/2000/svg"><defs
   id="defs21" /><sodipodi:namedview
   id="namedview19"
   pagecolor="#ffffff"
   bordercolor="#666666"
   borderopacity="1.0"
   inkscape:showpageshadow="2"
   inkscape:pageopacity="0.0"
   inkscape:pagecheckerboard="0"
   inkscape:deskcolor="#d1d1d1"
   showgrid="false"
   inkscape:zoom="0.472"
   inkscape:cx="611.22881"
   inkscape:cy="296.61017"
   inkscape:window-width="1297"
   inkscape:window-height="732"
   inkscape:window-x="0"
   inkscape:window-y="38"
   inkscape:window-maximized="0"
   inkscape:current-layer="Layer_1" />
<style
   type="text/css"
   id="style2">
	.st0{fill:#FFFFFF;stroke:#000000;stroke-miterlimit:10;}
</style>



<path
   class="st0"
   d="m 676.251,156.47352 h -11.73927 c 0,-0.31445 0,-0.62889 -0.10482,-0.94334 H 676.251 Z"
   id="path10"
   style="stroke-width:1.04815" />

<g
   id="g186"
   transform="matrix(1.0481498,0,0,1.0481498,-29.44429,-8.2578493)"><path
     class="st0"
     d="M 285.7,238 273.5,353.7 H 40 v -14 h 10.3 c 34.7,0 35.6,-5 35.6,-21.2 V 82.3 C 85.9,66.1 85,61.2 50.3,61.2 H 40 V 47.6 c 15.3,1.4 50.4,1.4 68,1.4 18.5,0 59,0 75.1,-1.3 V 61.2 H 168.3 C 126,61.2 126,67.5 126,82.8 v 239 c 0,14.8 0.9,18 22,18 h 36.5 c 79.2,0 85.5,-55.8 90,-101.7 z"
     id="path4" /><path
     class="st0"
     d="m 381.1,252.4 c -21.1,0 -23.4,-3.2 -26.5,-12.2 L 278,47.2 c -1.8,-5.4 -2.7,-7.2 -8.5,-7.2 -5.8,0 -7.2,1.8 -9,7.2 L 188,230.8 c -3.1,7.7 -8.5,21.6 -36.5,21.6 v 11.2 h 69.8 v -11.2 c -13.9,0 -22.5,-6.3 -22.5,-15.3 0,-2.2 0.5,-3.2 1.4,-6.3 l 15.3,-38.7 h 89.1 l 18,45.9 c 0.9,1.8 1.8,4 1.8,5.4 0,9 -17.1,9 -25.7,9 v 11.2 h 88.7 V 252.4 Z M 220,180.8 260,79.1 300,180.8 Z"
     id="path6" /><path
     class="st0"
     d="m 647,150.2 h -11.2 c -6.3,-71.7 -13.2,-86.4 -80.5,-86.4 -8.5,0 -20.7,0 -25.7,0.9 -8.1,1.8 -8.1,8.1 -8.1,17.1 V 318 c 0,15.3 0,21.6 47.2,21.6 h 18 v 14 c -18.5,-1.4 -64.8,-1.4 -85.5,-1.4 -20.7,0 -66.2,0 -84.6,1.4 v -14 h 18 c 47.2,0 47.2,-6.3 47.2,-21.6 V 81.8 c 0,-10.4 0,-15.3 -9.5,-17.1 -4.5,-0.9 -16.2,-0.9 -24.3,-0.9 -68,0 -74.7,14.8 -81,87.3 h -10.8 l 8.1,-100.8 h 274 z"
     id="path8" /><path
     class="st0"
     d="M 877.3,353.6 860.8,454.8 H 602.5 v -14 h 10.3 c 34.7,0 35.6,-5 35.6,-21.2 V 184.9 c 0,-16.2 -0.9,-21.2 -35.6,-21.2 h -10.3 v -13.5 h 33.2 c 0,0.3 0.1,0.6 0.1,0.9 H 647 l -0.1,-0.9 H 854.4 L 867.1,251 H 855.9 C 848.7,188.5 837,163.7 768.1,163.7 h -57.6 c -21.2,0 -22,3.2 -22,18 v 107.5 h 40 c 43.7,0 48.6,-13.9 48.6,-52.2 h 11.2 v 118.8 h -11.2 c 0,-38.2 -4.9,-52.7 -48.6,-52.7 h -40 v 119.7 c 0,14.8 0.9,18 22,18 h 59.4 c 71.4,0 85.4,-28.3 96.1,-87.3 h 11.3 z"
     id="path12" /><path
     class="st0"
     d="m 1160.5,339.7 v 14 c -18.9,-0.9 -39.6,-1.4 -58.5,-1.4 -16.7,0 -49.5,0 -65.2,1.4 v -14 c 19.3,-0.5 29.2,-8.1 29.2,-13.5 0,-1.3 -1.3,-3.2 -2.2,-5 l -71.1,-107.1 -63.5,94 c -3.2,5 -4.5,6.8 -4.5,10.8 0,8.1 7.6,20.2 28.3,20.7 v 14 h -75.7 l 2.4,-14.4 h -11.2 c -0.8,5 -1.6,9.8 -2.5,14.4 h -20 v -14 c 45,0 58.5,-20.7 64.8,-29.7 L 984.1,201.4 901.8,76.9 C 893.3,64.3 884.7,61.1 860,61.1 h -8.6 V 47.6 c 16.7,0.9 44.6,1.3 58.5,1.3 17.1,0 50,0 65.2,-1.3 v 13.5 c -18.9,0.5 -28.8,8.1 -28.8,13.5 0,1.8 2.2,5.4 3.2,6.8 l 57.6,86.4 51.3,-75.6 c 3.2,-5 4.1,-5.8 4.1,-10.3 0,-10.4 -9.9,-20.2 -27.9,-20.7 V 47.6 h 107.1 v 13.5 c -40,0.5 -55.3,14.8 -64.8,29.2 l -61.7,90 94.5,143.1 c 9.4,14 18.9,16.2 42.3,16.2 z"
     id="path14" /></g>
<path
   class="st0"
   d="m 920.15546,353.63049 -2.51556,15.09336 h -11.84409 c 0.83852,-4.82149 1.67704,-9.85261 2.62037,-15.09336 z"
   id="path16"
   style="stroke-width:1.04815" />
</svg>
